<?xml version="1.0" encoding="UTF-8" standalone="no"?>
<!DOCTYPE svg PUBLIC "-//W3C//DTD SVG 1.1//EN" "http://www.w3.org/Graphics/SVG/1.1/DTD/svg11.dtd">
<svg width="100%" height="100%" viewBox="0 0 1606 1171" version="1.1" xmlns="http://www.w3.org/2000/svg" xmlns:xlink="http://www.w3.org/1999/xlink" xml:space="preserve" xmlns:serif="http://www.serif.com/" style="fill-rule:evenodd;clip-rule:evenodd;stroke-linecap:round;stroke-linejoin:round;stroke-miterlimit:1.5;">
    <g id="Artboard1" transform="matrix(0.86385,0,0,0.903179,-220.331,-235.692)">
        <rect x="255.057" y="260.958" width="1858.46" height="1296.24" style="fill:none;"/>
        <g transform="matrix(1.60991,0,0,1.1072,-534.978,-69.7825)">
            <rect x="623.925" y="952.432" width="302.166" height="185.844" style="fill:rgb(230,230,230);"/>
        </g>
        <g transform="matrix(0.578804,0,0,0.260367,246.06,265.006)">
            <rect x="454.2" y="542.548" width="330.907" height="75.822" style="fill:rgb(242,175,13);fill-opacity:0.49;"/>
        </g>
        <g transform="matrix(0.341204,0,0,0.260367,685.597,265.006)">
            <rect x="454.2" y="542.548" width="330.907" height="75.822" style="fill:rgb(242,175,13);fill-opacity:0.49;"/>
        </g>
        <g transform="matrix(0.341204,0,0,0.260367,752.741,616.807)">
            <rect x="454.2" y="542.548" width="330.907" height="75.822" style="fill:rgb(242,13,94);fill-opacity:0.5;"/>
        </g>
        <g transform="matrix(0.888353,0,0,0.260367,105.463,351.087)">
            <rect x="454.2" y="542.548" width="330.907" height="75.822" style="fill:rgb(242,175,13);fill-opacity:0.49;"/>
        </g>
        <g transform="matrix(0.677992,0,0,0.260367,201.009,469.946)">
            <rect x="454.2" y="542.548" width="330.907" height="75.822" style="fill:rgb(66,13,242);fill-opacity:0.5;"/>
        </g>
        <g transform="matrix(1.15761,0,0,1.1072,0.953351,86.2526)">
            <g transform="matrix(0.0688406,0,0,0.227426,448.733,648.716)">
                <rect x="379.476" y="913.649" width="829.872" height="189.026" style="fill:rgb(242,175,13);fill-opacity:0.5;stroke:rgb(242,175,13);stroke-width:5.95px;"/>
            </g>
            <g transform="matrix(1,0,0,1,-44.9931,-107.612)">
                <g transform="matrix(25,0,0,25,569.515,994.442)">
                </g>
                <text x="527.803px" y="994.442px" style="font-family:'ArialMT', 'Arial', sans-serif;font-size:25px;">150</text>
            </g>
        </g>
        <g transform="matrix(1.15761,0,0,1.1072,101.562,86.2526)">
            <g transform="matrix(0.0688406,0,0,0.227426,448.733,648.716)">
                <rect x="379.476" y="913.649" width="829.872" height="189.026" style="fill:rgb(242,175,13);fill-opacity:0.5;stroke:rgb(242,175,13);stroke-width:5.95px;"/>
            </g>
            <g transform="matrix(1,0,0,1,-39.9931,-107.612)">
                <g transform="matrix(25,0,0,25,555.611,994.442)">
                </g>
                <text x="527.803px" y="994.442px" style="font-family:'ArialMT', 'Arial', sans-serif;font-size:25px;">50</text>
            </g>
        </g>
        <g transform="matrix(1.15761,0,0,1.1072,195.4,194.597)">
            <g transform="matrix(0.0688406,0,0,0.227426,448.733,648.716)">
                <rect x="379.476" y="913.649" width="829.872" height="189.026" style="fill:rgb(242,13,94);fill-opacity:0.5;stroke:rgb(242,13,94);stroke-width:5.95px;"/>
            </g>
            <g transform="matrix(1,0,0,1,-39.9931,-107.612)">
                <g transform="matrix(25,0,0,25,555.611,994.442)">
                </g>
                <text x="527.803px" y="994.442px" style="font-family:'ArialMT', 'Arial', sans-serif;font-size:25px;">50</text>
            </g>
        </g>
        <g transform="matrix(1.15761,0,0,1.1072,0.953351,139.312)">
            <g transform="matrix(0.0688406,0,0,0.227426,448.733,648.716)">
                <rect x="379.476" y="913.649" width="829.872" height="189.026" style="fill:rgb(66,13,242);fill-opacity:0.5;stroke:rgb(66,13,242);stroke-width:5.95px;"/>
            </g>
            <g transform="matrix(1,0,0,1,-44.9931,-107.612)">
                <g transform="matrix(25,0,0,25,567.659,994.442)">
                </g>
                <text x="527.803px" y="994.442px" style="font-family:'ArialMT', 'Arial', sans-serif;font-size:25px;">1<tspan x="539.852px 553.755px " y="994.442px 994.442px ">10</tspan></text>
            </g>
        </g>
        <g transform="matrix(1.15761,0,0,1.1072,0.953351,38.6547)">
            <g transform="matrix(0.0688406,0,0,0.227426,448.733,648.716)">
                <rect x="379.476" y="913.649" width="829.872" height="189.026" style="fill:rgb(242,175,13);fill-opacity:0.5;stroke:rgb(242,175,13);stroke-width:5.95px;"/>
            </g>
            <g transform="matrix(1,0,0,1,-38.9931,-107.612)">
                <g transform="matrix(25,0,0,25,555.611,994.442)">
                </g>
                <text x="527.803px" y="994.442px" style="font-family:'ArialMT', 'Arial', sans-serif;font-size:25px;">96</text>
            </g>
        </g>
        <g transform="matrix(0.738997,0,0,1.1072,141.705,-83.5456)">
            <g transform="matrix(1.56646,-0,-0,1,153.387,311.148)">
                <path d="M246.634,112.623L252.884,118.873L246.634,125.123" style="fill:none;stroke:rgb(242,175,13);stroke-width:2.08px;stroke-linejoin:miter;stroke-miterlimit:10;"/>
                <path d="M219.328,118.873L252.884,118.873" style="fill:none;stroke:rgb(242,175,13);stroke-width:2.08px;"/>
            </g>
        </g>
        <g transform="matrix(0.738997,0,0,1.1072,141.705,0.660956)">
            <g transform="matrix(1.56646,-0,-0,1,153.387,235.095)">
                <path d="M246.634,188.677L252.884,194.927L246.634,201.177" style="fill:none;stroke:rgb(242,175,13);stroke-width:2.08px;stroke-linejoin:miter;stroke-miterlimit:10;"/>
                <path d="M219.328,194.927L252.884,194.927" style="fill:none;stroke:rgb(242,175,13);stroke-width:2.08px;"/>
            </g>
        </g>
        <g transform="matrix(0.738997,0,0,1.1072,473.323,-83.5456)">
            <g transform="matrix(1.56646,-0,-0,1,-295.355,311.148)">
                <path d="M533.103,112.623L539.353,118.873L533.103,125.123" style="fill:none;stroke:rgb(242,175,13);stroke-width:2.08px;stroke-linejoin:miter;stroke-miterlimit:10;"/>
                <path d="M505.797,118.873L539.353,118.873" style="fill:none;stroke:rgb(242,175,13);stroke-width:2.08px;"/>
            </g>
        </g>
        <g transform="matrix(0.738997,0,0,1.1072,141.705,117.754)">
            <g transform="matrix(1.56646,-0,-0,1,153.387,129.338)">
                <path d="M246.634,294.433L252.884,300.683L246.634,306.933" style="fill:none;stroke:rgb(66,13,242);stroke-width:2.08px;stroke-linejoin:miter;stroke-miterlimit:10;"/>
                <path d="M219.328,300.683L252.884,300.683" style="fill:none;stroke:rgb(66,13,242);stroke-width:2.08px;"/>
            </g>
        </g>
        <g transform="matrix(0.738997,0,0,1.1072,540.467,263.492)">
            <g transform="matrix(1.56646,-0,-0,1,-386.213,-2.28924)">
                <path d="M591.106,426.06L597.356,432.31L591.106,438.56" style="fill:none;stroke:rgb(242,13,94);stroke-width:2.08px;stroke-linejoin:miter;stroke-miterlimit:10;"/>
                <path d="M563.8,432.31L597.356,432.31" style="fill:none;stroke:rgb(242,13,94);stroke-width:2.08px;"/>
            </g>
        </g>
        <g transform="matrix(-0.738997,-8.65602e-17,1.41766e-16,-1.1072,1067.73,914.83)">
            <g transform="matrix(-1.56646,1.22465e-16,-1.91836e-16,-1,1099.7,590.564)">
                <path d="M357.476,166.793L351.226,160.543L357.476,154.293" style="fill:none;stroke:rgb(242,175,13);stroke-width:2.08px;stroke-linejoin:miter;stroke-miterlimit:10;"/>
                <path d="M384.782,160.543L351.226,160.543" style="fill:none;stroke:rgb(242,175,13);stroke-width:2.08px;"/>
            </g>
        </g>
        <g transform="matrix(-0.738997,-8.65602e-17,1.41766e-16,-1.1072,1170.16,1003.87)">
            <g transform="matrix(-1.56646,1.22465e-16,-1.91836e-16,-1,1238.31,670.982)">
                <path d="M445.961,247.211L439.711,240.961L445.961,234.711" style="fill:none;stroke:rgb(242,175,13);stroke-width:2.08px;stroke-linejoin:miter;stroke-miterlimit:10;"/>
                <path d="M473.268,240.961L439.711,240.961" style="fill:none;stroke:rgb(242,175,13);stroke-width:2.08px;"/>
            </g>
        </g>
        <g transform="matrix(-0.738997,-8.65602e-17,1.41766e-16,-1.1072,1320.73,914.83)">
            <g transform="matrix(-1.56646,1.22465e-16,-1.91836e-16,-1,1442.05,590.564)">
                <path d="M576.026,166.793L569.776,160.543L576.026,154.293" style="fill:none;stroke:rgb(242,175,13);stroke-width:2.08px;stroke-linejoin:miter;stroke-miterlimit:10;"/>
                <path d="M603.332,160.543L569.776,160.543" style="fill:none;stroke:rgb(242,175,13);stroke-width:2.08px;"/>
            </g>
        </g>
        <g transform="matrix(-0.738997,-8.65602e-17,1.41766e-16,-1.1072,1100.55,1128.74)">
            <g transform="matrix(-1.56646,1.22465e-16,-1.91836e-16,-1,1144.11,783.762)">
                <path d="M385.829,359.991L379.579,353.741L385.829,347.491" style="fill:none;stroke:rgb(66,13,242);stroke-width:2.08px;stroke-linejoin:miter;stroke-miterlimit:10;"/>
                <path d="M413.135,353.741L379.579,353.741" style="fill:none;stroke:rgb(66,13,242);stroke-width:2.08px;"/>
            </g>
        </g>
        <g transform="matrix(-0.738997,-8.65602e-17,1.41766e-16,-1.1072,1387.87,1275.88)">
            <g transform="matrix(-1.56646,1.22465e-16,-1.91836e-16,-1,1532.91,916.659)">
                <path d="M634.028,492.888L627.778,486.638L634.028,480.388" style="fill:none;stroke:rgb(242,13,94);stroke-width:2.08px;stroke-linejoin:miter;stroke-miterlimit:10;"/>
                <path d="M661.334,486.638L627.778,486.638" style="fill:none;stroke:rgb(242,13,94);stroke-width:2.08px;"/>
            </g>
        </g>
        <g transform="matrix(1.15761,0,0,1.1072,-66.3264,-103.306)">
            <path d="M325.478,594.271L1010.27,594.271" style="fill:none;stroke:black;stroke-width:2.08px;stroke-dasharray:8.33,8.33,0,0,0,0;"/>
        </g>
        <g transform="matrix(1.15761,0,0,1.1072,-66.3264,35.1931)">
            <path d="M325.478,594.271L1010.27,594.271" style="fill:none;stroke:black;stroke-width:2.08px;stroke-dasharray:8.33,8.33,0,0,0,0;"/>
        </g>
        <g transform="matrix(1.15761,0,0,1.1072,-66.3264,-103.306)">
            <g transform="matrix(25,0,0,25,392.461,509.759)">
            </g>
            <text x="328.545px" y="509.759px" style="font-family:'ArialMT', 'Arial', sans-serif;font-size:25px;">Cell 1</text>
        </g>
        <g transform="matrix(1.15761,0,0,1.1072,-66.3264,66.2055)">
            <g transform="matrix(25,0,0,25,392.461,509.759)">
            </g>
            <text x="328.545px" y="509.759px" style="font-family:'ArialMT', 'Arial', sans-serif;font-size:25px;">Cell 2</text>
        </g>
        <g transform="matrix(1.15761,0,0,1.1072,-66.3264,205.41)">
            <g transform="matrix(25,0,0,25,392.461,509.759)">
            </g>
            <text x="328.545px" y="509.759px" style="font-family:'ArialMT', 'Arial', sans-serif;font-size:25px;">Cell 3</text>
        </g>
        <g transform="matrix(1.15761,0,0,1.1072,-71.8864,-5.58321)">
            <g transform="matrix(25,0,0,25,793.638,878.952)">
            </g>
            <text x="562.998px" y="878.952px" style="font-family:'ArialMT', 'Arial', sans-serif;font-size:25px;">chromosomes 1 to N</text>
        </g>
        <g transform="matrix(1.15761,0,0,1.1072,-23.5874,31.7426)">
            <g transform="matrix(25,0,0,25,398.092,962.606)">
            </g>
            <text x="342.525px" y="962.606px" style="font-family:'ArialMT', 'Arial', sans-serif;font-size:25px;">Cells</text>
        </g>
        <g transform="matrix(1.15761,0,0,1.1072,-83.6905,-103.306)">
            <g transform="matrix(1,-0,-0,1,292.627,328.996)">
                <path d="M377.073,572.976L370.823,585.476L364.573,572.976C367.698,576.101 373.948,576.101 377.073,572.976Z"/>
                <path d="M370.823,499.373L370.823,575.476" style="fill:none;stroke:black;stroke-width:2.08px;"/>
            </g>
        </g>
        <g transform="matrix(1.15761,0,0,1.1072,-83.6905,296.533)">
            <g transform="matrix(1,-0,-0,1,292.627,-32.1308)">
                <path d="M377.073,934.102L370.823,946.602L364.573,934.102C367.698,937.227 373.948,937.227 377.073,934.102Z"/>
                <path d="M370.823,860.5L370.823,936.602" style="fill:none;stroke:black;stroke-width:2.08px;"/>
            </g>
        </g>
        <g transform="matrix(1.15761,0,0,1.1072,-160.528,-103.605)">
            <g transform="matrix(25,0,0,25,954.888,878.154)">
            </g>
            <text x="757.622px" y="878.154px" style="font-family:'ArialMT', 'Arial', sans-serif;font-size:25px;">sparse row matrix</text>
        </g>
        <g transform="matrix(1.15761,0,0,1.1072,-160.528,296.234)">
            <g transform="matrix(25,0,0,25,1006.39,878.154)">
            </g>
            <text x="757.622px" y="878.154px" style="font-family:'ArialMT', 'Arial', sans-serif;font-size:25px;">internal representation</text>
        </g>
        <g transform="matrix(1.15761,0,0,1.1072,42.4942,-129.623)">
            <text x="368.748px" y="1366.53px" style="font-family:'ArialMT', 'Arial', sans-serif;font-size:25px;">Column indices: 10, 10, 200, 10, 300</text>
            <text x="368.748px" y="1418.16px" style="font-family:'ArialMT', 'Arial', sans-serif;font-size:25px;">Row of<tspan x="446.104px 453.05px " y="1418.16px 1418.16px ">fs</tspan>ets:       0, 3, 4, 5</text>
            <g transform="matrix(25,0,0,25,775.023,1469.8)">
            </g>
            <text x="368.748px" y="1469.8px" style="font-family:'ArialMT', 'Arial', sans-serif;font-size:25px;">V<tspan x="383.568px 397.471px " y="1469.8px 1469.8px ">al</tspan>ues:               96, 150, 50, 1<tspan x="705.516px 719.42px " y="1469.8px 1469.8px ">10</tspan>, 50</text>
        </g>
        <g transform="matrix(1.15761,0,0,1.1072,-132.404,-84.8148)">
            <g transform="matrix(29.1667,0,0,29.1667,865.856,378.593)">
            </g>
            <text x="544.952px" y="378.593px" style="font-family:'Arial-BoldMT', 'Arial', sans-serif;font-weight:700;font-size:29.167px;">Paired-end sequencing</text>
        </g>
        <g transform="matrix(1.15761,0,0,1.1072,275.438,311.855)">
            <g transform="matrix(20.8333,0,0,20.8333,195.604,101.859)">
            </g>
            <text x="172.431px" y="101.859px" style="font-family:'ArialMT', 'Arial', sans-serif;font-size:20.833px;">10</text>
        </g>
        <g transform="matrix(1.15761,0,0,1.1072,276.655,397.824)">
            <g transform="matrix(20.8333,0,0,20.8333,195.604,101.859)">
            </g>
            <text x="172.431px" y="101.859px" style="font-family:'ArialMT', 'Arial', sans-serif;font-size:20.833px;">10</text>
        </g>
        <g transform="matrix(1.15761,0,0,1.1072,276.655,516.836)">
            <g transform="matrix(20.8333,0,0,20.8333,195.604,101.859)">
            </g>
            <text x="172.431px" y="101.859px" style="font-family:'ArialMT', 'Arial', sans-serif;font-size:20.833px;">10</text>
        </g>
        <g transform="matrix(1.15761,0,0,1.1072,661.6,663.323)">
            <g transform="matrix(20.8333,0,0,20.8333,207.19,101.859)">
            </g>
            <text x="172.431px" y="101.859px" style="font-family:'ArialMT', 'Arial', sans-serif;font-size:20.833px;">300</text>
        </g>
        <g transform="matrix(1.15761,0,0,1.1072,828.106,663.323)">
            <g transform="matrix(20.8333,0,0,20.8333,207.19,101.859)">
            </g>
            <text x="172.431px" y="101.859px" style="font-family:'ArialMT', 'Arial', sans-serif;font-size:20.833px;">350</text>
        </g>
        <g transform="matrix(1.15761,0,0,1.1072,537.7,516.836)">
            <g transform="matrix(20.8333,0,0,20.8333,207.19,101.859)">
            </g>
            <text x="172.431px" y="101.859px" style="font-family:'ArialMT', 'Arial', sans-serif;font-size:20.833px;">120</text>
        </g>
        <g transform="matrix(1.15761,0,0,1.1072,608.348,397.824)">
            <g transform="matrix(20.8333,0,0,20.8333,207.19,101.859)">
            </g>
            <text x="172.431px" y="101.859px" style="font-family:'ArialMT', 'Arial', sans-serif;font-size:20.833px;">160</text>
        </g>
        <g transform="matrix(1.15761,0,0,1.1072,502.261,311.855)">
            <g transform="matrix(20.8333,0,0,20.8333,207.19,101.859)">
            </g>
            <text x="172.431px" y="101.859px" style="font-family:'ArialMT', 'Arial', sans-serif;font-size:20.833px;">106</text>
        </g>
        <g transform="matrix(1.15761,0,0,1.1072,597.25,311.855)">
            <g transform="matrix(20.8333,0,0,20.8333,207.19,101.859)">
            </g>
            <text x="172.431px" y="101.859px" style="font-family:'ArialMT', 'Arial', sans-serif;font-size:20.833px;">200</text>
        </g>
        <g transform="matrix(1.15761,0,0,1.1072,758.931,311.855)">
            <g transform="matrix(20.8333,0,0,20.8333,207.19,101.859)">
            </g>
            <text x="172.431px" y="101.859px" style="font-family:'ArialMT', 'Arial', sans-serif;font-size:20.833px;">250</text>
        </g>
        <g transform="matrix(1.60991,0,0,1.1072,416.193,-69.7825)">
            <rect x="623.925" y="952.432" width="302.166" height="185.844" style="fill:rgb(230,230,230);"/>
        </g>
        <g transform="matrix(0.578804,0,0,0.260367,1197.23,265.006)">
            <rect x="454.2" y="542.548" width="330.907" height="75.822" style="fill:rgb(242,175,13);fill-opacity:0.49;"/>
        </g>
        <g transform="matrix(0.341204,0,0,0.260367,1636.77,265.006)">
            <rect x="454.2" y="542.548" width="330.907" height="75.822" style="fill:rgb(242,175,13);fill-opacity:0.49;"/>
        </g>
        <g transform="matrix(0.341204,0,0,0.260367,1703.91,616.807)">
            <rect x="454.2" y="542.548" width="330.907" height="75.822" style="fill:rgb(242,13,94);fill-opacity:0.5;"/>
        </g>
        <g transform="matrix(0.888353,0,0,0.260367,1056.63,351.087)">
            <rect x="454.2" y="542.548" width="330.907" height="75.822" style="fill:rgb(242,175,13);fill-opacity:0.49;"/>
        </g>
        <g transform="matrix(0.677992,0,0,0.260367,1152.18,469.946)">
            <rect x="454.2" y="542.548" width="330.907" height="75.822" style="fill:rgb(66,13,242);fill-opacity:0.5;"/>
        </g>
        <g transform="matrix(1.15761,0,0,1.1072,952.125,86.2526)">
            <g transform="matrix(0.0688406,0,0,0.227426,448.733,648.716)">
                <rect x="379.476" y="913.649" width="829.872" height="189.026" style="fill:rgb(242,175,13);fill-opacity:0.5;stroke:rgb(242,175,13);stroke-width:5.95px;"/>
            </g>
            <g transform="matrix(1,0,0,1,-39.9931,-107.612)">
                <g transform="matrix(25,0,0,25,555.611,994.442)">
                </g>
                <text x="527.803px" y="994.442px" style="font-family:'ArialMT', 'Arial', sans-serif;font-size:25px;">30</text>
            </g>
        </g>
        <g transform="matrix(1.15761,0,0,1.1072,1072.41,86.2526)">
            <g transform="matrix(0.0688406,0,0,0.227426,448.733,648.716)">
                <rect x="379.476" y="913.649" width="829.872" height="189.026" style="fill:rgb(242,175,13);fill-opacity:0.5;stroke:rgb(242,175,13);stroke-width:5.95px;"/>
            </g>
            <g transform="matrix(1,0,0,1,-41.9931,-107.612)">
                <g transform="matrix(25,0,0,25,563.936,994.442)">
                </g>
                <text x="527.803px" y="994.442px" style="font-family:'ArialMT', 'Arial', sans-serif;font-size:25px;">-30</text>
            </g>
        </g>
        <g transform="matrix(1.15761,0,0,1.1072,1146.57,194.597)">
            <g transform="matrix(0.0688406,0,0,0.227426,448.733,648.716)">
                <rect x="379.476" y="913.649" width="829.872" height="189.026" style="fill:rgb(242,13,94);fill-opacity:0.5;stroke:rgb(242,13,94);stroke-width:5.95px;"/>
            </g>
            <g transform="matrix(1,0,0,1,-39.9931,-107.612)">
                <g transform="matrix(25,0,0,25,555.611,994.442)">
                </g>
                <text x="527.803px" y="994.442px" style="font-family:'ArialMT', 'Arial', sans-serif;font-size:25px;">30</text>
            </g>
        </g>
        <g transform="matrix(1.15761,0,0,1.1072,979.907,139.312)">
            <g transform="matrix(0.0688406,0,0,0.227426,448.733,648.716)">
                <rect x="379.476" y="913.649" width="829.872" height="189.026" style="fill:rgb(66,13,242);fill-opacity:0.5;stroke:rgb(66,13,242);stroke-width:5.95px;"/>
            </g>
            <g transform="matrix(1,0,0,1,-41.9931,-107.612)">
                <g transform="matrix(25,0,0,25,563.936,994.442)">
                </g>
                <text x="527.803px" y="994.442px" style="font-family:'ArialMT', 'Arial', sans-serif;font-size:25px;">-30</text>
            </g>
        </g>
        <g transform="matrix(1.15761,0,0,1.1072,952.125,38.6547)">
            <g transform="matrix(0.0688406,0,0,0.227426,448.733,648.716)">
                <rect x="379.476" y="913.649" width="829.872" height="189.026" style="fill:rgb(242,175,13);fill-opacity:0.5;stroke:rgb(242,175,13);stroke-width:5.95px;"/>
            </g>
            <g transform="matrix(1,0,0,1,-38.9931,-107.612)">
                <g transform="matrix(25,0,0,25,555.611,994.442)">
                </g>
                <text x="527.803px" y="994.442px" style="font-family:'ArialMT', 'Arial', sans-serif;font-size:25px;">30</text>
            </g>
        </g>
        <g transform="matrix(0.738997,0,0,1.1072,1092.88,-83.5456)">
            <g transform="matrix(1.56646,-0,-0,1,-1133.72,311.148)">
                <path d="M1068.3,112.623L1074.55,118.873L1068.3,125.123" style="fill:none;stroke:rgb(242,175,13);stroke-width:2.08px;stroke-linejoin:miter;stroke-miterlimit:10;"/>
                <path d="M1041,118.873L1074.55,118.873" style="fill:none;stroke:rgb(242,175,13);stroke-width:2.08px;"/>
            </g>
        </g>
        <g transform="matrix(0.738997,0,0,1.1072,1092.88,0.660956)">
            <g transform="matrix(1.56646,-0,-0,1,-1133.72,235.095)">
                <path d="M1068.3,188.677L1074.55,194.927L1068.3,201.177" style="fill:none;stroke:rgb(242,175,13);stroke-width:2.08px;stroke-linejoin:miter;stroke-miterlimit:10;"/>
                <path d="M1041,194.927L1074.55,194.927" style="fill:none;stroke:rgb(242,175,13);stroke-width:2.08px;"/>
            </g>
        </g>
        <g transform="matrix(0.738997,0,0,1.1072,1491.64,263.492)">
            <g transform="matrix(1.56646,-0,-0,1,-1673.32,-2.28924)">
                <path d="M1412.78,426.06L1419.03,432.31L1412.78,438.56" style="fill:none;stroke:rgb(242,13,94);stroke-width:2.08px;stroke-linejoin:miter;stroke-miterlimit:10;"/>
                <path d="M1385.47,432.31L1419.03,432.31" style="fill:none;stroke:rgb(242,13,94);stroke-width:2.08px;"/>
            </g>
        </g>
        <g transform="matrix(-0.738997,-8.65602e-17,1.41766e-16,-1.1072,2271.9,914.83)">
            <g transform="matrix(-1.56646,1.22465e-16,-1.91836e-16,-1,2729.16,590.564)">
                <path d="M1397.69,166.793L1391.44,160.543L1397.69,154.293" style="fill:none;stroke:rgb(242,175,13);stroke-width:2.08px;stroke-linejoin:miter;stroke-miterlimit:10;"/>
                <path d="M1425,160.543L1391.44,160.543" style="fill:none;stroke:rgb(242,175,13);stroke-width:2.08px;"/>
            </g>
        </g>
        <g transform="matrix(-0.738997,-8.65602e-17,1.41766e-16,-1.1072,2051.73,1128.74)">
            <g transform="matrix(-1.56646,1.22465e-16,-1.91836e-16,-1,2431.23,783.762)">
                <path d="M1207.5,359.991L1201.25,353.741L1207.5,347.491" style="fill:none;stroke:rgb(66,13,242);stroke-width:2.08px;stroke-linejoin:miter;stroke-miterlimit:10;"/>
                <path d="M1234.81,353.741L1201.25,353.741" style="fill:none;stroke:rgb(66,13,242);stroke-width:2.08px;"/>
            </g>
        </g>
        <g transform="matrix(1.15761,0,0,1.1072,884.845,-103.306)">
            <path d="M325.478,594.271L1010.27,594.271" style="fill:none;stroke:black;stroke-width:2.08px;stroke-dasharray:8.33,8.33,0,0,0,0;"/>
        </g>
        <g transform="matrix(1.15761,0,0,1.1072,884.845,35.1931)">
            <path d="M325.478,594.271L1010.27,594.271" style="fill:none;stroke:black;stroke-width:2.08px;stroke-dasharray:8.33,8.33,0,0,0,0;"/>
        </g>
        <g transform="matrix(1.15761,0,0,1.1072,884.845,-103.306)">
            <g transform="matrix(25,0,0,25,392.461,509.759)">
            </g>
            <text x="328.545px" y="509.759px" style="font-family:'ArialMT', 'Arial', sans-serif;font-size:25px;">Cell 1</text>
        </g>
        <g transform="matrix(1.15761,0,0,1.1072,884.845,66.2055)">
            <g transform="matrix(25,0,0,25,392.461,509.759)">
            </g>
            <text x="328.545px" y="509.759px" style="font-family:'ArialMT', 'Arial', sans-serif;font-size:25px;">Cell 2</text>
        </g>
        <g transform="matrix(1.15761,0,0,1.1072,884.845,205.41)">
            <g transform="matrix(25,0,0,25,392.461,509.759)">
            </g>
            <text x="328.545px" y="509.759px" style="font-family:'ArialMT', 'Arial', sans-serif;font-size:25px;">Cell 3</text>
        </g>
        <g transform="matrix(1.15761,0,0,1.1072,879.285,-5.58321)">
            <g transform="matrix(25,0,0,25,793.638,878.952)">
            </g>
            <text x="562.998px" y="878.952px" style="font-family:'ArialMT', 'Arial', sans-serif;font-size:25px;">chromosomes 1 to N</text>
        </g>
        <g transform="matrix(1.15761,0,0,1.1072,927.584,31.7426)">
            <g transform="matrix(25,0,0,25,398.092,962.606)">
            </g>
            <text x="342.525px" y="962.606px" style="font-family:'ArialMT', 'Arial', sans-serif;font-size:25px;">Cells</text>
        </g>
        <g transform="matrix(1.15761,0,0,1.1072,867.481,-103.306)">
            <g transform="matrix(1,-0,-0,1,-529.042,328.996)">
                <path d="M1198.74,572.976L1192.49,585.476L1186.24,572.976C1189.37,576.101 1195.62,576.101 1198.74,572.976Z"/>
                <path d="M1192.49,499.373L1192.49,575.476" style="fill:none;stroke:black;stroke-width:2.08px;"/>
            </g>
        </g>
        <g transform="matrix(1.15761,0,0,1.1072,867.481,296.533)">
            <g transform="matrix(1,-0,-0,1,-529.042,-32.1308)">
                <path d="M1198.74,934.102L1192.49,946.602L1186.24,934.102C1189.37,937.227 1195.62,937.227 1198.74,934.102Z"/>
                <path d="M1192.49,860.5L1192.49,936.602" style="fill:none;stroke:black;stroke-width:2.08px;"/>
            </g>
        </g>
        <g transform="matrix(1.15761,0,0,1.1072,790.643,-103.605)">
            <g transform="matrix(25,0,0,25,954.888,878.154)">
            </g>
            <text x="757.622px" y="878.154px" style="font-family:'ArialMT', 'Arial', sans-serif;font-size:25px;">sparse row matrix</text>
        </g>
        <g transform="matrix(1.15761,0,0,1.1072,790.643,296.234)">
            <g transform="matrix(25,0,0,25,1006.39,878.154)">
            </g>
            <text x="757.622px" y="878.154px" style="font-family:'ArialMT', 'Arial', sans-serif;font-size:25px;">internal representation</text>
        </g>
        <g transform="matrix(1.15761,0,0,1.1072,993.666,-129.623)">
            <text x="368.748px" y="1366.53px" style="font-family:'ArialMT', 'Arial', sans-serif;font-size:25px;">Column indices: 10, 10, 250, 120, 300</text>
            <text x="368.748px" y="1418.16px" style="font-family:'ArialMT', 'Arial', sans-serif;font-size:25px;">Row of<tspan x="446.104px 453.05px " y="1418.16px 1418.16px ">fs</tspan>ets:       0, 3, 4, 5</text>
            <g transform="matrix(25,0,0,25,765.721,1469.8)">
            </g>
            <text x="368.748px" y="1469.8px" style="font-family:'ArialMT', 'Arial', sans-serif;font-size:25px;">V<tspan x="383.568px 397.471px " y="1469.8px 1469.8px ">al</tspan>ues:               30, 30, -30, -30, 30</text>
        </g>
        <g transform="matrix(1.15761,0,0,1.1072,818.767,-84.8148)">
            <g transform="matrix(29.1667,0,0,29.1667,873.96,378.593)">
            </g>
            <text x="544.952px" y="378.593px" style="font-family:'Arial-BoldMT', 'Arial', sans-serif;font-weight:700;font-size:29.167px;">Single-read sequencing</text>
        </g>
        <g transform="matrix(1.15761,0,0,1.1072,1226.61,311.855)">
            <g transform="matrix(20.8333,0,0,20.8333,195.604,101.859)">
            </g>
            <text x="172.431px" y="101.859px" style="font-family:'ArialMT', 'Arial', sans-serif;font-size:20.833px;">10</text>
        </g>
        <g transform="matrix(1.15761,0,0,1.1072,1227.83,397.824)">
            <g transform="matrix(20.8333,0,0,20.8333,195.604,101.859)">
            </g>
            <text x="172.431px" y="101.859px" style="font-family:'ArialMT', 'Arial', sans-serif;font-size:20.833px;">10</text>
        </g>
        <g transform="matrix(1.15761,0,0,1.1072,1227.83,516.836)">
            <g transform="matrix(20.8333,0,0,20.8333,195.604,101.859)">
            </g>
            <text x="172.431px" y="101.859px" style="font-family:'ArialMT', 'Arial', sans-serif;font-size:20.833px;">10</text>
        </g>
        <g transform="matrix(1.15761,0,0,1.1072,1612.77,663.323)">
            <g transform="matrix(20.8333,0,0,20.8333,207.19,101.859)">
            </g>
            <text x="172.431px" y="101.859px" style="font-family:'ArialMT', 'Arial', sans-serif;font-size:20.833px;">300</text>
        </g>
        <g transform="matrix(1.15761,0,0,1.1072,1779.28,663.323)">
            <g transform="matrix(20.8333,0,0,20.8333,207.19,101.859)">
            </g>
            <text x="172.431px" y="101.859px" style="font-family:'ArialMT', 'Arial', sans-serif;font-size:20.833px;">350</text>
        </g>
        <g transform="matrix(1.15761,0,0,1.1072,1488.87,516.836)">
            <g transform="matrix(20.8333,0,0,20.8333,207.19,101.859)">
            </g>
            <text x="172.431px" y="101.859px" style="font-family:'ArialMT', 'Arial', sans-serif;font-size:20.833px;">120</text>
        </g>
        <g transform="matrix(1.15761,0,0,1.1072,1559.52,397.824)">
            <g transform="matrix(20.8333,0,0,20.8333,207.19,101.859)">
            </g>
            <text x="172.431px" y="101.859px" style="font-family:'ArialMT', 'Arial', sans-serif;font-size:20.833px;">160</text>
        </g>
        <g transform="matrix(1.15761,0,0,1.1072,1453.43,311.855)">
            <g transform="matrix(20.8333,0,0,20.8333,207.19,101.859)">
            </g>
            <text x="172.431px" y="101.859px" style="font-family:'ArialMT', 'Arial', sans-serif;font-size:20.833px;">106</text>
        </g>
        <g transform="matrix(1.15761,0,0,1.1072,1548.42,311.855)">
            <g transform="matrix(20.8333,0,0,20.8333,207.19,101.859)">
            </g>
            <text x="172.431px" y="101.859px" style="font-family:'ArialMT', 'Arial', sans-serif;font-size:20.833px;">200</text>
        </g>
        <g transform="matrix(1.15761,0,0,1.1072,1710.1,311.855)">
            <g transform="matrix(20.8333,0,0,20.8333,207.19,101.859)">
            </g>
            <text x="172.431px" y="101.859px" style="font-family:'ArialMT', 'Arial', sans-serif;font-size:20.833px;">250</text>
        </g>
        <g transform="matrix(1.15761,0,0,1.1072,-10.7911,284.271)">
            <text x="649.529px" y="693.901px" style="font-family:'ArialMT', 'Arial', sans-serif;font-size:20.833px;">values indicate</text>
            <g transform="matrix(20.8333,0,0,20.8333,794.295,715.416)">
            </g>
            <text x="649.529px" y="715.416px" style="font-family:'ArialMT', 'Arial', sans-serif;font-size:20.833px;">fragment length</text>
        </g>
        <g transform="matrix(1.15761,0,0,1.1072,969.75,284.271)">
            <text x="649.529px" y="693.901px" style="font-family:'ArialMT', 'Arial', sans-serif;font-size:20.833px;">values indicate</text>
            <g transform="matrix(20.8333,0,0,20.8333,753.778,715.416)">
            </g>
            <text x="649.529px" y="715.416px" style="font-family:'ArialMT', 'Arial', sans-serif;font-size:20.833px;">read length</text>
        </g>
    </g>
</svg>
