<?xml version="1.0" encoding="UTF-8" standalone="no"?>
<!DOCTYPE svg PUBLIC "-//W3C//DTD SVG 1.1//EN" "http://www.w3.org/Graphics/SVG/1.1/DTD/svg11.dtd">
<svg width="100%" height="100%" viewBox="0 0 780 189" version="1.1" xmlns="http://www.w3.org/2000/svg" xmlns:xlink="http://www.w3.org/1999/xlink" xml:space="preserve" xmlns:serif="http://www.serif.com/" style="fill-rule:evenodd;clip-rule:evenodd;stroke-linejoin:round;stroke-miterlimit:10;">
    <g transform="matrix(1,0,0,1,-18.6912,-32.5347)">
        <g id="Layer-1" serif:id="Layer 1" transform="matrix(1,0,0,1,0,300)">
            <g transform="matrix(1,0,0,1.0266,0,-300.865)">
                <rect x="18.691" y="32.535" width="779.264" height="183.266" style="fill:white;"/>
            </g>
            <g transform="matrix(1,0,0,1,35.5136,-267.553)">
                <g transform="matrix(1,0,0,1,45.5009,-71.9131)">
                    <rect x="66.566" y="155.401" width="10.586" height="37.109" style="fill:rgb(0,144,81);"/>
                </g>
                <g transform="matrix(6.12323e-17,-1,1,6.12323e-17,-19.6748,203.947)">
                    <text x="36.105px" y="139.35px" style="font-family:'ArialMT', 'Arial', sans-serif;font-size:9px;">TF-logIDF</text>
                </g>
            </g>
            <g transform="matrix(1,0,0,1,10.2582,-267.553)">
                <g transform="matrix(1,0,0,1,45.5009,-79.4011)">
                    <rect x="79.8" y="155.401" width="10.586" height="44.597" style="fill:rgb(0,144,81);"/>
                </g>
                <g transform="matrix(6.12323e-17,-1,1,6.12323e-17,-6.08957,210.029)">
                    <text x="36.105px" y="139.35px" style="font-family:'ArialMT', 'Arial', sans-serif;font-size:9px;">log(TF-IDF)</text>
                </g>
            </g>
            <g transform="matrix(1,0,0,1,22.068,-267.553)">
                <g transform="matrix(1,0,0,1,45.5009,-70.9421)">
                    <rect x="93.033" y="155.401" width="10.586" height="36.138" style="fill:rgb(0,144,81);"/>
                </g>
                <g transform="matrix(6.12323e-17,-1,1,6.12323e-17,7.72652,215.957)">
                    <text x="36.105px" y="139.35px" style="font-family:'ArialMT', 'Arial', sans-serif;font-size:9px;">logTF-logIDF</text>
                </g>
            </g>
            <g transform="matrix(1,0,0,1,35.8778,-267.553)">
                <g transform="matrix(1,0,0,1,45.5009,-64.0541)">
                    <rect x="106.266" y="155.401" width="10.586" height="29.25" style="fill:rgb(0,84,147);"/>
                </g>
                <g transform="matrix(6.12323e-17,-1,1,6.12323e-17,20.5218,177.945)">
                    <text x="36.105px" y="139.35px" style="font-family:'ArialMT', 'Arial', sans-serif;font-size:9px;">IDF</text>
                </g>
            </g>
            <g transform="matrix(1,0,0,1,8.62289,-267.553)">
                <g transform="matrix(1,0,0,1,45.5009,-70.5761)">
                    <rect x="119.499" y="155.401" width="10.587" height="35.772" style="fill:rgb(0,84,147);"/>
                </g>
                <g transform="matrix(6.12323e-17,-1,1,6.12323e-17,33.6675,203.947)">
                    <text x="36.105px" y="139.35px" style="font-family:'ArialMT', 'Arial', sans-serif;font-size:9px;">TF-logIDF</text>
                </g>
            </g>
            <g transform="matrix(1,0,0,1,-56.6952,-267.553)">
                <g transform="matrix(1,0,0,1,45.5009,-83.1371)">
                    <rect x="132.732" y="155.401" width="10.586" height="48.333" style="fill:rgb(0,84,147);"/>
                </g>
                <g transform="matrix(6.12323e-17,-1,1,6.12323e-17,46.5459,210.029)">
                    <text x="36.105px" y="139.35px" style="font-family:'ArialMT', 'Arial', sans-serif;font-size:9px;">log(TF-IDF)</text>
                </g>
            </g>
            <g transform="matrix(1,0,0,1,-82.9506,-267.553)">
                <g transform="matrix(1,0,0,1,45.5009,-85.9881)">
                    <rect x="145.966" y="155.401" width="10.586" height="51.184" style="fill:rgb(0,84,147);"/>
                </g>
                <g transform="matrix(6.12323e-17,-1,1,6.12323e-17,59.805,215.957)">
                    <text x="36.105px" y="139.35px" style="font-family:'ArialMT', 'Arial', sans-serif;font-size:9px;">logTF-logIDF</text>
                </g>
            </g>
            <g transform="matrix(1,0,0,1,-123.153,-267.553)">
                <g transform="matrix(1,0,0,1,45.5009,-94.3781)">
                    <rect x="159.199" y="155.401" width="10.586" height="59.574" style="fill:rgb(255,126,121);"/>
                </g>
                <g transform="matrix(6.12323e-17,-1,1,6.12323e-17,72.6299,192.223)">
                    <text x="36.105px" y="139.35px" style="font-family:'ArialMT', 'Arial', sans-serif;font-size:9px;">jaccard</text>
                </g>
            </g>
            <g transform="matrix(1,0,0,1,-149.459,-267.553)">
                <g transform="matrix(1,0,0,1,45.5009,-94.2701)">
                    <rect x="172.432" y="155.401" width="10.586" height="59.466" style="fill:rgb(148,33,147);"/>
                </g>
                <g transform="matrix(6.12323e-17,-1,1,6.12323e-17,85.5057,192.223)">
                    <text x="36.105px" y="139.35px" style="font-family:'ArialMT', 'Arial', sans-serif;font-size:9px;">jaccard</text>
                </g>
            </g>
            <g transform="matrix(1,0,0,1,-149.904,-267.553)">
                <g transform="matrix(1,0,0,1,45.5009,-90.7371)">
                    <rect x="198.898" y="155.401" width="10.586" height="55.933" style="fill:rgb(148,33,147);"/>
                </g>
                <g transform="matrix(6.12323e-17,-1,1,6.12323e-17,112.536,189.502)">
                    <text x="36.105px" y="139.35px" style="font-family:'ArialMT', 'Arial', sans-serif;font-size:9px;">cosine</text>
                </g>
            </g>
            <g transform="matrix(1,0,0,1,73.3615,-146.957)">
                <path d="M0,3.5L0,0L0,3.5Z" style="fill-rule:nonzero;"/>
            </g>
            <g transform="matrix(0,1,1,0,75.1118,-145.207)">
                <path d="M-1.75,-1.75L1.75,-1.75" style="fill:none;fill-rule:nonzero;stroke:black;stroke-width:0.8px;"/>
            </g>
            <g transform="matrix(0,1,1,0,88.3447,-145.207)">
                <path d="M-1.75,-1.75L1.75,-1.75" style="fill:none;fill-rule:nonzero;stroke:black;stroke-width:0.8px;"/>
            </g>
            <g transform="matrix(0,1,1,0,101.578,-145.207)">
                <path d="M-1.75,-1.75L1.75,-1.75" style="fill:none;fill-rule:nonzero;stroke:black;stroke-width:0.8px;"/>
            </g>
            <g transform="matrix(0,1,1,0,114.811,-145.207)">
                <path d="M-1.75,-1.75L1.75,-1.75" style="fill:none;fill-rule:nonzero;stroke:black;stroke-width:0.8px;"/>
            </g>
            <g transform="matrix(0,1,1,0,128.044,-145.207)">
                <path d="M-1.75,-1.75L1.75,-1.75" style="fill:none;fill-rule:nonzero;stroke:black;stroke-width:0.8px;"/>
            </g>
            <g transform="matrix(0,1,1,0,141.278,-145.207)">
                <path d="M-1.75,-1.75L1.75,-1.75" style="fill:none;fill-rule:nonzero;stroke:black;stroke-width:0.8px;"/>
            </g>
            <g transform="matrix(0,1,1,0,154.511,-145.207)">
                <path d="M-1.75,-1.75L1.75,-1.75" style="fill:none;fill-rule:nonzero;stroke:black;stroke-width:0.8px;"/>
            </g>
            <g transform="matrix(0,1,1,0,167.744,-145.207)">
                <path d="M-1.75,-1.75L1.75,-1.75" style="fill:none;fill-rule:nonzero;stroke:black;stroke-width:0.8px;"/>
            </g>
            <g transform="matrix(0,1,1,0,180.977,-145.207)">
                <path d="M-1.75,-1.75L1.75,-1.75" style="fill:none;fill-rule:nonzero;stroke:black;stroke-width:0.8px;"/>
            </g>
            <g transform="matrix(0,1,1,0,194.21,-145.207)">
                <path d="M-1.75,-1.75L1.75,-1.75" style="fill:none;fill-rule:nonzero;stroke:black;stroke-width:0.8px;"/>
            </g>
            <g transform="matrix(-1,0,0,1,63.2451,-146.957)">
                <path d="M-3.5,0L0,0" style="fill:none;fill-rule:nonzero;stroke:black;stroke-width:0.8px;"/>
            </g>
            <g transform="matrix(-1,0,0,1,63.2451,-172.175)">
                <path d="M-3.5,0L0,0" style="fill:none;fill-rule:nonzero;stroke:black;stroke-width:0.8px;"/>
            </g>
            <g transform="matrix(-1,0,0,1,63.2451,-197.394)">
                <path d="M-3.5,0L0,0" style="fill:none;fill-rule:nonzero;stroke:black;stroke-width:0.8px;"/>
            </g>
            <g transform="matrix(-1,0,0,1,63.2451,-221.907)">
                <path d="M-3.5,0L0,0" style="fill:none;fill-rule:nonzero;stroke:black;stroke-width:0.8px;"/>
            </g>
            <g transform="matrix(-1,0,0,1,63.2451,-247.125)">
                <path d="M-3.5,0L0,0" style="fill:none;fill-rule:nonzero;stroke:black;stroke-width:0.8px;"/>
            </g>
            <g transform="matrix(1,0,0,1,160.678,-161)">
                <g transform="matrix(-1,0,0,1,56.2451,-60.9065)">
                    <path d="M-3.5,0L0,0" style="fill:none;fill-rule:nonzero;stroke:black;stroke-width:0.8px;"/>
                </g>
                <g transform="matrix(-1,0,0,1,56.2451,-86.1253)">
                    <path d="M-3.5,0L0,0" style="fill:none;fill-rule:nonzero;stroke:black;stroke-width:0.8px;"/>
                </g>
            </g>
            <g transform="matrix(1,0,0,1,-43.999,-267.553)">
                <g transform="matrix(1,0,0,1,69.08,73.7118)">
                    <path d="M0,0L3.63,1.34L3.63,-1.34L0,0M-0.97,0.56L-0.97,-0.56L6.32,-3.34L6.32,-2.31L4.45,-1.65L4.45,1.64L6.32,2.3L6.32,3.34L-0.97,0.56Z" style="fill-rule:nonzero;"/>
                </g>
                <g transform="matrix(1,0,0,1,71.9804,67.0914)">
                    <path d="M0,-1.24C0.08,-1.45 0.23,-1.66 0.46,-1.86C0.7,-2.06 1.02,-2.26 1.43,-2.46L3.42,-3.46L3.42,-2.4L1.55,-1.47C1.07,-1.23 0.74,-0.99 0.58,-0.77C0.42,-0.54 0.34,-0.23 0.34,0.16L0.34,1.23L3.42,1.23L3.42,2.22L-3.87,2.22L-3.87,-0.01C-3.87,-0.84 -3.69,-1.46 -3.35,-1.87C-3,-2.28 -2.47,-2.49 -1.77,-2.49C-1.31,-2.49 -0.92,-2.38 -0.62,-2.17C-0.32,-1.95 -0.11,-1.64 0,-1.24M-3.06,1.23L-0.47,1.23L-0.47,-0.01C-0.47,-0.48 -0.58,-0.84 -0.8,-1.08C-1.02,-1.32 -1.34,-1.45 -1.77,-1.45C-2.19,-1.45 -2.51,-1.32 -2.73,-1.08C-2.95,-0.84 -3.06,-0.48 -3.06,-0.01L-3.06,1.23" style="fill-rule:nonzero;"/>
                </g>
                <g transform="matrix(1,0,0,1,45.5009,-152.264)">
                    <rect x="22.609" y="213.636" width="7.29" height="0.99"/>
                </g>
            </g>
            <g transform="matrix(0,-1,-1,0,118.585,-198.797)">
                <path d="M-51.84,51.84L51.84,51.84" style="fill:none;fill-rule:nonzero;stroke:black;stroke-width:0.8px;stroke-linecap:square;stroke-linejoin:miter;"/>
            </g>
            <g transform="matrix(1,0,0,1,66.7451,-146.957)">
                <path d="M0,0L136.565,0" style="fill:none;fill-rule:nonzero;stroke:black;stroke-width:0.8px;stroke-linecap:square;stroke-linejoin:miter;"/>
            </g>
            <g transform="matrix(1,0,0,1,-40.7724,-257.66)">
                <text x="141.998px" y="12.188px" style="font-family:'ArialMT', 'Arial', sans-serif;font-size:9px;">10X PBMC 5k</text>
            </g>
            <g transform="matrix(1,0,0,1,-19.4981,-406.038)">
                <rect x="239.921" y="155.401" width="145.565" height="103.68" style="fill:white;"/>
            </g>
            <g transform="matrix(1,0,0,1,-25.5571,-267.553)">
                <g transform="matrix(1,0,0,1,45.5009,-126.676)">
                    <rect x="241.245" y="155.401" width="10.586" height="91.872" style="fill:rgb(0,144,81);"/>
                </g>
                <g transform="matrix(6.12323e-17,-1,1,6.12323e-17,155.765,203.947)">
                    <text x="36.105px" y="139.35px" style="font-family:'ArialMT', 'Arial', sans-serif;font-size:9px;">TF-logIDF</text>
                </g>
            </g>
            <g transform="matrix(1,0,0,1,27.3808,-267.553)">
                <g transform="matrix(1,0,0,1,45.5009,-85.3421)">
                    <rect x="254.478" y="155.401" width="10.586" height="50.538" style="fill:rgb(0,144,81);"/>
                </g>
                <g transform="matrix(6.12323e-17,-1,1,6.12323e-17,169.35,210.029)">
                    <text x="36.105px" y="139.35px" style="font-family:'ArialMT', 'Arial', sans-serif;font-size:9px;">log(TF-IDF)</text>
                </g>
            </g>
            <g transform="matrix(1,0,0,1,-38.7403,-267.553)">
                <g transform="matrix(1,0,0,1,45.5009,-125.593)">
                    <rect x="267.711" y="155.401" width="10.586" height="90.789" style="fill:rgb(0,144,81);"/>
                </g>
                <g transform="matrix(6.12323e-17,-1,1,6.12323e-17,183.166,215.957)">
                    <text x="36.105px" y="139.35px" style="font-family:'ArialMT', 'Arial', sans-serif;font-size:9px;">logTF-logIDF</text>
                </g>
            </g>
            <g transform="matrix(1,0,0,1,14.2081,-267.553)">
                <g transform="matrix(1,0,0,1,45.5009,-73.9381)">
                    <rect x="280.944" y="155.401" width="10.586" height="39.134" style="fill:rgb(0,84,147);"/>
                </g>
                <g transform="matrix(6.12323e-17,-1,1,6.12323e-17,195.961,177.945)">
                    <text x="36.105px" y="139.35px" style="font-family:'ArialMT', 'Arial', sans-serif;font-size:9px;">IDF</text>
                </g>
            </g>
            <g transform="matrix(1,0,0,1,-24.9351,-267.553)">
                <g transform="matrix(1,0,0,1,45.5009,-104.077)">
                    <rect x="294.177" y="155.401" width="10.587" height="69.273" style="fill:rgb(0,84,147);"/>
                </g>
                <g transform="matrix(6.12323e-17,-1,1,6.12323e-17,209.107,203.947)">
                    <text x="36.105px" y="139.35px" style="font-family:'ArialMT', 'Arial', sans-serif;font-size:9px;">TF-logIDF</text>
                </g>
            </g>
            <g transform="matrix(1,0,0,1,-51.5106,-267.553)">
                <g transform="matrix(1,0,0,1,45.5009,-108.961)">
                    <rect x="307.411" y="155.401" width="10.586" height="74.157" style="fill:rgb(0,84,147);"/>
                </g>
                <g transform="matrix(6.12323e-17,-1,1,6.12323e-17,221.985,210.029)">
                    <text x="36.105px" y="139.35px" style="font-family:'ArialMT', 'Arial', sans-serif;font-size:9px;">log(TF-IDF)</text>
                </g>
            </g>
            <g transform="matrix(1,0,0,1,-77.999,-267.553)">
                <g transform="matrix(1,0,0,1,45.5009,-116.682)">
                    <rect x="320.644" y="155.401" width="10.586" height="81.878" style="fill:rgb(0,84,147);"/>
                </g>
                <g transform="matrix(6.12323e-17,-1,1,6.12323e-17,235.245,215.957)">
                    <text x="36.105px" y="139.35px" style="font-family:'ArialMT', 'Arial', sans-serif;font-size:9px;">logTF-logIDF</text>
                </g>
            </g>
            <g transform="matrix(1,0,0,1,-143.938,-267.553)">
                <g transform="matrix(1,0,0,1,45.5009,-127.569)">
                    <rect x="333.877" y="155.401" width="10.586" height="92.765" style="fill:rgb(255,126,121);"/>
                </g>
                <g transform="matrix(6.12323e-17,-1,1,6.12323e-17,248.069,192.223)">
                    <text x="36.105px" y="139.35px" style="font-family:'ArialMT', 'Arial', sans-serif;font-size:9px;">jaccard</text>
                </g>
            </g>
            <g transform="matrix(1,0,0,1,-144.625,-267.553)">
                <g transform="matrix(1,0,0,1,45.5009,-127.245)">
                    <rect x="347.11" y="155.401" width="10.586" height="92.441" style="fill:rgb(148,33,147);"/>
                </g>
                <g transform="matrix(6.12323e-17,-1,1,6.12323e-17,260.945,192.223)">
                    <text x="36.105px" y="139.35px" style="font-family:'ArialMT', 'Arial', sans-serif;font-size:9px;">jaccard</text>
                </g>
            </g>
            <g transform="matrix(1,0,0,1,-196.89,-267.553)">
                <g transform="matrix(1,0,0,1,45.5009,-133.547)">
                    <rect x="373.577" y="155.401" width="10.586" height="98.743" style="fill:rgb(148,33,147);"/>
                </g>
                <g transform="matrix(6.12323e-17,-1,1,6.12323e-17,287.975,189.502)">
                    <text x="36.105px" y="139.35px" style="font-family:'ArialMT', 'Arial', sans-serif;font-size:9px;">cosine</text>
                </g>
            </g>
            <g transform="matrix(0,1,1,0,228.79,-145.207)">
                <path d="M-1.75,-1.75L1.75,-1.75" style="fill:none;fill-rule:nonzero;stroke:black;stroke-width:0.8px;"/>
            </g>
            <g transform="matrix(0,1,1,0,242.023,-145.207)">
                <path d="M-1.75,-1.75L1.75,-1.75" style="fill:none;fill-rule:nonzero;stroke:black;stroke-width:0.8px;"/>
            </g>
            <g transform="matrix(0,1,1,0,255.256,-145.207)">
                <path d="M-1.75,-1.75L1.75,-1.75" style="fill:none;fill-rule:nonzero;stroke:black;stroke-width:0.8px;"/>
            </g>
            <g transform="matrix(0,1,1,0,268.489,-145.207)">
                <path d="M-1.75,-1.75L1.75,-1.75" style="fill:none;fill-rule:nonzero;stroke:black;stroke-width:0.8px;"/>
            </g>
            <g transform="matrix(0,1,1,0,281.723,-145.207)">
                <path d="M-1.75,-1.75L1.75,-1.75" style="fill:none;fill-rule:nonzero;stroke:black;stroke-width:0.8px;"/>
            </g>
            <g transform="matrix(0,1,1,0,294.956,-145.207)">
                <path d="M-1.75,-1.75L1.75,-1.75" style="fill:none;fill-rule:nonzero;stroke:black;stroke-width:0.8px;"/>
            </g>
            <g transform="matrix(0,1,1,0,308.189,-145.207)">
                <path d="M-1.75,-1.75L1.75,-1.75" style="fill:none;fill-rule:nonzero;stroke:black;stroke-width:0.8px;"/>
            </g>
            <g transform="matrix(0,1,1,0,321.422,-145.207)">
                <path d="M-1.75,-1.75L1.75,-1.75" style="fill:none;fill-rule:nonzero;stroke:black;stroke-width:0.8px;"/>
            </g>
            <g transform="matrix(0,1,1,0,334.655,-145.207)">
                <path d="M-1.75,-1.75L1.75,-1.75" style="fill:none;fill-rule:nonzero;stroke:black;stroke-width:0.8px;"/>
            </g>
            <g transform="matrix(0,1,1,0,347.889,-145.207)">
                <path d="M-1.75,-1.75L1.75,-1.75" style="fill:none;fill-rule:nonzero;stroke:black;stroke-width:0.8px;"/>
            </g>
            <g transform="matrix(-1,0,0,1,216.923,-146.957)">
                <path d="M-3.5,0L0,0" style="fill:none;fill-rule:nonzero;stroke:black;stroke-width:0.8px;"/>
            </g>
            <g transform="matrix(-1,0,0,1,216.923,-172.175)">
                <path d="M-3.5,0L0,0" style="fill:none;fill-rule:nonzero;stroke:black;stroke-width:0.8px;"/>
            </g>
            <g transform="matrix(-1,0,0,1,216.923,-197.394)">
                <path d="M-3.5,0L0,0" style="fill:none;fill-rule:nonzero;stroke:black;stroke-width:0.8px;"/>
            </g>
            <g transform="matrix(0,-1,-1,0,272.263,-198.797)">
                <path d="M-51.84,51.84L51.84,51.84" style="fill:none;fill-rule:nonzero;stroke:black;stroke-width:0.8px;stroke-linecap:square;stroke-linejoin:miter;"/>
            </g>
            <g transform="matrix(1,0,0,1,220.423,-146.957)">
                <path d="M0,0L135.565,0" style="fill:none;fill-rule:nonzero;stroke:black;stroke-width:0.8px;stroke-linecap:square;stroke-linejoin:miter;"/>
            </g>
            <g transform="matrix(1,0,0,1,-40.4981,-406.038)">
                <rect x="414.6" y="155.401" width="145.565" height="103.68" style="fill:white;"/>
            </g>
            <g transform="matrix(1,0,0,1,-58.9804,-267.553)">
                <g transform="matrix(1,0,0,1,45.5009,-103.368)">
                    <rect x="415.923" y="155.401" width="10.586" height="68.564" style="fill:rgb(0,144,81);"/>
                </g>
                <g transform="matrix(6.12323e-17,-1,1,6.12323e-17,331.03,203.947)">
                    <text x="36.105px" y="139.35px" style="font-family:'ArialMT', 'Arial', sans-serif;font-size:9px;">TF-logIDF</text>
                </g>
            </g>
            <g transform="matrix(1,0,0,1,-85.8545,-267.553)">
                <g transform="matrix(1,0,0,1,45.5009,-104.637)">
                    <rect x="429.156" y="155.401" width="10.586" height="69.833" style="fill:rgb(0,144,81);"/>
                </g>
                <g transform="matrix(6.12323e-17,-1,1,6.12323e-17,344.615,210.029)">
                    <text x="36.105px" y="139.35px" style="font-family:'ArialMT', 'Arial', sans-serif;font-size:9px;">log(TF-IDF)</text>
                </g>
            </g>
            <g transform="matrix(1,0,0,1,-72.0819,-267.553)">
                <g transform="matrix(1,0,0,1,45.5009,-103.233)">
                    <rect x="442.39" y="155.401" width="10.586" height="68.429" style="fill:rgb(0,144,81);"/>
                </g>
                <g transform="matrix(6.12323e-17,-1,1,6.12323e-17,358.431,215.957)">
                    <text x="36.105px" y="139.35px" style="font-family:'ArialMT', 'Arial', sans-serif;font-size:9px;">logTF-logIDF</text>
                </g>
            </g>
            <g transform="matrix(1,0,0,1,-6.25658,-267.553)">
                <g transform="matrix(1,0,0,1,45.5009,-76.3991)">
                    <rect x="455.622" y="155.401" width="10.587" height="41.595" style="fill:rgb(0,84,147);"/>
                </g>
                <g transform="matrix(6.12323e-17,-1,1,6.12323e-17,371.226,177.945)">
                    <text x="36.105px" y="139.35px" style="font-family:'ArialMT', 'Arial', sans-serif;font-size:9px;">IDF</text>
                </g>
            </g>
            <g transform="matrix(1,0,0,1,-46.0605,-267.553)">
                <g transform="matrix(1,0,0,1,45.5009,-94.7241)">
                    <rect x="468.855" y="155.401" width="10.587" height="59.92" style="fill:rgb(0,84,147);"/>
                </g>
                <g transform="matrix(6.12323e-17,-1,1,6.12323e-17,384.372,203.947)">
                    <text x="36.105px" y="139.35px" style="font-family:'ArialMT', 'Arial', sans-serif;font-size:9px;">TF-logIDF</text>
                </g>
            </g>
            <g transform="matrix(1,0,0,1,-73.3139,-267.553)">
                <g transform="matrix(1,0,0,1,45.5009,-97.3201)">
                    <rect x="482.089" y="155.401" width="10.587" height="62.516" style="fill:rgb(0,84,147);"/>
                </g>
                <g transform="matrix(6.12323e-17,-1,1,6.12323e-17,397.25,210.029)">
                    <text x="36.105px" y="139.35px" style="font-family:'ArialMT', 'Arial', sans-serif;font-size:9px;">log(TF-IDF)</text>
                </g>
            </g>
            <g transform="matrix(1,0,0,1,-58.9824,-267.553)">
                <g transform="matrix(1,0,0,1,45.5009,-93.4661)">
                    <rect x="495.322" y="155.401" width="10.586" height="58.662" style="fill:rgb(0,84,147);"/>
                </g>
                <g transform="matrix(6.12323e-17,-1,1,6.12323e-17,410.509,215.957)">
                    <text x="36.105px" y="139.35px" style="font-family:'ArialMT', 'Arial', sans-serif;font-size:9px;">logTF-logIDF</text>
                </g>
            </g>
            <g transform="matrix(1,0,0,1,-125.258,-267.279)">
                <g transform="matrix(1,0,0,1,45.5009,-102.238)">
                    <rect x="508.556" y="155.401" width="10.586" height="67.434" style="fill:rgb(255,126,121);"/>
                </g>
                <g transform="matrix(6.12323e-17,-1,1,6.12323e-17,423.334,192.223)">
                    <text x="36.105px" y="139.35px" style="font-family:'ArialMT', 'Arial', sans-serif;font-size:9px;">jaccard</text>
                </g>
            </g>
            <g transform="matrix(1,0,0,1,-126.22,-267.553)">
                <g transform="matrix(1,0,0,1,45.5009,-100.546)">
                    <rect x="521.788" y="155.401" width="10.587" height="65.742" style="fill:rgb(148,33,147);"/>
                </g>
                <g transform="matrix(6.12323e-17,-1,1,6.12323e-17,436.21,192.223)">
                    <text x="36.105px" y="139.35px" style="font-family:'ArialMT', 'Arial', sans-serif;font-size:9px;">jaccard</text>
                </g>
            </g>
            <g transform="matrix(1,0,0,1,-217.929,-267.553)">
                <g transform="matrix(1,0,0,1,45.5009,-116.416)">
                    <rect x="548.255" y="155.401" width="10.587" height="81.612" style="fill:rgb(148,33,147);"/>
                </g>
                <g transform="matrix(6.12323e-17,-1,1,6.12323e-17,463.24,189.502)">
                    <text x="36.105px" y="139.35px" style="font-family:'ArialMT', 'Arial', sans-serif;font-size:9px;">cosine</text>
                </g>
            </g>
            <g transform="matrix(0,1,1,0,382.468,-145.207)">
                <path d="M-1.75,-1.75L1.75,-1.75" style="fill:none;fill-rule:nonzero;stroke:black;stroke-width:0.8px;"/>
            </g>
            <g transform="matrix(0,1,1,0,395.701,-145.207)">
                <path d="M-1.75,-1.75L1.75,-1.75" style="fill:none;fill-rule:nonzero;stroke:black;stroke-width:0.8px;"/>
            </g>
            <g transform="matrix(0,1,1,0,408.935,-145.207)">
                <path d="M-1.75,-1.75L1.75,-1.75" style="fill:none;fill-rule:nonzero;stroke:black;stroke-width:0.8px;"/>
            </g>
            <g transform="matrix(0,1,1,0,422.168,-145.207)">
                <path d="M-1.75,-1.75L1.75,-1.75" style="fill:none;fill-rule:nonzero;stroke:black;stroke-width:0.8px;"/>
            </g>
            <g transform="matrix(0,1,1,0,435.401,-145.207)">
                <path d="M-1.75,-1.75L1.75,-1.75" style="fill:none;fill-rule:nonzero;stroke:black;stroke-width:0.8px;"/>
            </g>
            <g transform="matrix(0,1,1,0,448.634,-145.207)">
                <path d="M-1.75,-1.75L1.75,-1.75" style="fill:none;fill-rule:nonzero;stroke:black;stroke-width:0.8px;"/>
            </g>
            <g transform="matrix(0,1,1,0,461.867,-145.207)">
                <path d="M-1.75,-1.75L1.75,-1.75" style="fill:none;fill-rule:nonzero;stroke:black;stroke-width:0.8px;"/>
            </g>
            <g transform="matrix(0,1,1,0,475.101,-145.207)">
                <path d="M-1.75,-1.75L1.75,-1.75" style="fill:none;fill-rule:nonzero;stroke:black;stroke-width:0.8px;"/>
            </g>
            <g transform="matrix(0,1,1,0,488.334,-145.207)">
                <path d="M-1.75,-1.75L1.75,-1.75" style="fill:none;fill-rule:nonzero;stroke:black;stroke-width:0.8px;"/>
            </g>
            <g transform="matrix(0,1,1,0,501.567,-145.207)">
                <path d="M-1.75,-1.75L1.75,-1.75" style="fill:none;fill-rule:nonzero;stroke:black;stroke-width:0.8px;"/>
            </g>
            <g transform="matrix(-1,0,0,1,370.602,-146.957)">
                <path d="M-3.5,0L0,0" style="fill:none;fill-rule:nonzero;stroke:black;stroke-width:0.8px;"/>
            </g>
            <g transform="matrix(-1,0,0,1,370.602,-172.175)">
                <path d="M-3.5,0L0,0" style="fill:none;fill-rule:nonzero;stroke:black;stroke-width:0.8px;"/>
            </g>
            <g transform="matrix(-1,0,0,1,370.602,-197.394)">
                <path d="M-3.5,0L0,0" style="fill:none;fill-rule:nonzero;stroke:black;stroke-width:0.8px;"/>
            </g>
            <g transform="matrix(0,-1,-1,0,425.942,-198.797)">
                <path d="M-51.84,51.84L51.84,51.84" style="fill:none;fill-rule:nonzero;stroke:black;stroke-width:0.8px;stroke-linecap:square;stroke-linejoin:miter;"/>
            </g>
            <g transform="matrix(1,0,0,1,374.102,-146.957)">
                <path d="M0,0L136.565,0" style="fill:none;fill-rule:nonzero;stroke:black;stroke-width:0.8px;stroke-linecap:square;stroke-linejoin:miter;"/>
            </g>
            <g transform="matrix(1,0,0,1,-111.42,-451.257)">
                <text x="645.247px" y="204px" style="font-family:'ArialMT', 'Arial', sans-serif;font-size:9px;">Gastrointestinal (Zhang, 2021)</text>
            </g>
            <g transform="matrix(1,0,0,1,-14.3847,-267.553)">
                <g transform="matrix(1,0,0,1,45.5009,-52.2091)">
                    <rect x="590.602" y="155.401" width="10.586" height="17.405" style="fill:rgb(0,144,81);"/>
                </g>
                <g transform="matrix(6.12323e-17,-1,1,6.12323e-17,505.353,203.947)">
                    <text x="36.105px" y="139.35px" style="font-family:'ArialMT', 'Arial', sans-serif;font-size:9px;">TF-logIDF</text>
                </g>
            </g>
            <g transform="matrix(1,0,0,1,-53.9827,-267.553)">
                <g transform="matrix(1,0,0,1,45.5009,-69.1191)">
                    <rect x="603.834" y="155.401" width="10.587" height="34.315" style="fill:rgb(0,144,81);"/>
                </g>
                <g transform="matrix(6.12323e-17,-1,1,6.12323e-17,518.938,210.029)">
                    <text x="36.105px" y="139.35px" style="font-family:'ArialMT', 'Arial', sans-serif;font-size:9px;">log(TF-IDF)</text>
                </g>
            </g>
            <g transform="matrix(1,0,0,1,-53.9704,-267.553)">
                <g transform="matrix(1,0,0,1,45.5009,-53.2771)">
                    <rect x="617.067" y="155.401" width="10.587" height="18.473" style="fill:rgb(0,144,81);"/>
                </g>
                <g transform="matrix(6.12323e-17,-1,1,6.12323e-17,532.755,215.957)">
                    <text x="36.105px" y="139.35px" style="font-family:'ArialMT', 'Arial', sans-serif;font-size:9px;">logTF-logIDF</text>
                </g>
            </g>
            <g transform="matrix(1,0,0,1,-27.4651,-267.553)">
                <g transform="matrix(1,0,0,1,45.5009,-36.9901)">
                    <rect x="630.301" y="155.401" width="10.587" height="2.186" style="fill:rgb(0,84,147);"/>
                </g>
                <g transform="matrix(6.12323e-17,-1,1,6.12323e-17,545.55,177.945)">
                    <text x="36.105px" y="139.35px" style="font-family:'ArialMT', 'Arial', sans-serif;font-size:9px;">IDF</text>
                </g>
            </g>
            <g transform="matrix(1,0,0,1,-54.0371,-267.553)">
                <g transform="matrix(1,0,0,1,45.5009,-39.8371)">
                    <rect x="643.534" y="155.401" width="10.586" height="5.033" style="fill:rgb(0,84,147);"/>
                </g>
                <g transform="matrix(6.12323e-17,-1,1,6.12323e-17,558.696,203.947)">
                    <text x="36.105px" y="139.35px" style="font-family:'ArialMT', 'Arial', sans-serif;font-size:9px;">TF-logIDF</text>
                </g>
            </g>
            <g transform="matrix(1,0,0,1,-120.192,-267.553)">
                <g transform="matrix(1,0,0,1,45.5009,-73.1241)">
                    <rect x="656.768" y="155.401" width="10.586" height="38.32" style="fill:rgb(0,84,147);"/>
                </g>
                <g transform="matrix(6.12323e-17,-1,1,6.12323e-17,571.574,210.029)">
                    <text x="36.105px" y="139.35px" style="font-family:'ArialMT', 'Arial', sans-serif;font-size:9px;">log(TF-IDF)</text>
                </g>
            </g>
            <g transform="matrix(1,0,0,1,-146.624,-267.553)">
                <g transform="matrix(1,0,0,1,45.5009,-113.892)">
                    <rect x="670" y="155.401" width="10.587" height="79.088" style="fill:rgb(0,84,147);"/>
                </g>
                <g transform="matrix(6.12323e-17,-1,1,6.12323e-17,584.833,215.957)">
                    <text x="36.105px" y="139.35px" style="font-family:'ArialMT', 'Arial', sans-serif;font-size:9px;">logTF-logIDF</text>
                </g>
            </g>
            <g transform="matrix(1,0,0,1,-185.953,-267.553)">
                <g transform="matrix(1,0,0,1,45.5009,-121.048)">
                    <rect x="683.233" y="155.401" width="10.587" height="86.244" style="fill:rgb(255,126,121);"/>
                </g>
                <g transform="matrix(6.12323e-17,-1,1,6.12323e-17,597.658,192.223)">
                    <text x="36.105px" y="139.35px" style="font-family:'ArialMT', 'Arial', sans-serif;font-size:9px;">jaccard</text>
                </g>
            </g>
            <g transform="matrix(1,0,0,1,-212.347,-267.553)">
                <g transform="matrix(1,0,0,1,45.5009,-121.483)">
                    <rect x="696.467" y="155.401" width="10.587" height="86.679" style="fill:rgb(148,33,147);"/>
                </g>
                <g transform="matrix(6.12323e-17,-1,1,6.12323e-17,610.534,192.223)">
                    <text x="36.105px" y="139.35px" style="font-family:'ArialMT', 'Arial', sans-serif;font-size:9px;">jaccard</text>
                </g>
            </g>
            <g transform="matrix(1,0,0,1,-212.931,-267.553)">
                <g transform="matrix(1,0,0,1,45.5009,-119.221)">
                    <rect x="722.934" y="155.401" width="10.586" height="84.417" style="fill:rgb(148,33,147);"/>
                </g>
                <g transform="matrix(6.12323e-17,-1,1,6.12323e-17,637.564,189.502)">
                    <text x="36.105px" y="139.35px" style="font-family:'ArialMT', 'Arial', sans-serif;font-size:9px;">cosine</text>
                </g>
            </g>
            <g transform="matrix(0,1,1,0,536.146,-145.207)">
                <path d="M-1.75,-1.75L1.75,-1.75" style="fill:none;fill-rule:nonzero;stroke:black;stroke-width:0.8px;"/>
            </g>
            <g transform="matrix(0,1,1,0,549.38,-145.207)">
                <path d="M-1.75,-1.75L1.75,-1.75" style="fill:none;fill-rule:nonzero;stroke:black;stroke-width:0.8px;"/>
            </g>
            <g transform="matrix(0,1,1,0,562.613,-145.207)">
                <path d="M-1.75,-1.75L1.75,-1.75" style="fill:none;fill-rule:nonzero;stroke:black;stroke-width:0.8px;"/>
            </g>
            <g transform="matrix(0,1,1,0,575.846,-145.207)">
                <path d="M-1.75,-1.75L1.75,-1.75" style="fill:none;fill-rule:nonzero;stroke:black;stroke-width:0.8px;"/>
            </g>
            <g transform="matrix(0,1,1,0,589.079,-145.207)">
                <path d="M-1.75,-1.75L1.75,-1.75" style="fill:none;fill-rule:nonzero;stroke:black;stroke-width:0.8px;"/>
            </g>
            <g transform="matrix(0,1,1,0,602.312,-145.207)">
                <path d="M-1.75,-1.75L1.75,-1.75" style="fill:none;fill-rule:nonzero;stroke:black;stroke-width:0.8px;"/>
            </g>
            <g transform="matrix(0,1,1,0,615.546,-145.207)">
                <path d="M-1.75,-1.75L1.75,-1.75" style="fill:none;fill-rule:nonzero;stroke:black;stroke-width:0.8px;"/>
            </g>
            <g transform="matrix(0,1,1,0,628.779,-145.207)">
                <path d="M-1.75,-1.75L1.75,-1.75" style="fill:none;fill-rule:nonzero;stroke:black;stroke-width:0.8px;"/>
            </g>
            <g transform="matrix(0,1,1,0,642.012,-145.207)">
                <path d="M-1.75,-1.75L1.75,-1.75" style="fill:none;fill-rule:nonzero;stroke:black;stroke-width:0.8px;"/>
            </g>
            <g transform="matrix(0,1,1,0,655.245,-145.207)">
                <path d="M-1.75,-1.75L1.75,-1.75" style="fill:none;fill-rule:nonzero;stroke:black;stroke-width:0.8px;"/>
            </g>
            <g transform="matrix(-1,0,0,1,524.28,-146.957)">
                <path d="M-3.5,0L0,0" style="fill:none;fill-rule:nonzero;stroke:black;stroke-width:0.8px;"/>
            </g>
            <g transform="matrix(-1,0,0,1,524.28,-172.175)">
                <path d="M-3.5,0L0,0" style="fill:none;fill-rule:nonzero;stroke:black;stroke-width:0.8px;"/>
            </g>
            <g transform="matrix(-1,0,0,1,524.28,-197.394)">
                <path d="M-3.5,0L0,0" style="fill:none;fill-rule:nonzero;stroke:black;stroke-width:0.8px;"/>
            </g>
            <g transform="matrix(0,-1,-1,0,579.62,-198.797)">
                <path d="M-51.84,51.84L51.84,51.84" style="fill:none;fill-rule:nonzero;stroke:black;stroke-width:0.8px;stroke-linecap:square;stroke-linejoin:miter;"/>
            </g>
            <g transform="matrix(1,0,0,1,527.78,-146.957)">
                <path d="M0,0L136.564,0" style="fill:none;fill-rule:nonzero;stroke:black;stroke-width:0.8px;stroke-linecap:square;stroke-linejoin:miter;"/>
            </g>
            <g transform="matrix(1,0,0,1,707.388,-233.47)">
                <rect x="13.715" y="18.806" width="11.813" height="11.813" style="fill:rgb(148,33,147);"/>
            </g>
            <g transform="matrix(1,0,0,1,707.388,-214.89)">
                <rect x="13.715" y="18.806" width="11.813" height="11.813" style="fill:rgb(255,126,121);"/>
            </g>
            <g transform="matrix(1,0,0,1,707.388,-176.101)">
                <rect x="13.715" y="18.806" width="11.813" height="11.813" style="fill:rgb(0,84,147);"/>
            </g>
            <g transform="matrix(1,0,0,1,691.849,-179.77)">
                <text x="46.852px" y="31.482px" style="font-family:'ArialMT', 'Arial', sans-serif;font-size:9px;">Signac</text>
            </g>
            <g transform="matrix(1,0,0,1,691.849,-238.482)">
                <text x="46.852px" y="31.482px" style="font-family:'ArialMT', 'Arial', sans-serif;font-size:9px;">SnapA<tspan x="73.206px 78.035px 84.038px " y="31.482px 31.482px 31.482px ">TAC</tspan>2</text>
            </g>
            <g transform="matrix(1,0,0,1,691.849,-220.087)">
                <text x="46.852px" y="31.482px" style="font-family:'ArialMT', 'Arial', sans-serif;font-size:9px;">SnapA<tspan x="73.206px 78.035px 84.038px " y="31.482px 31.482px 31.482px ">TAC</tspan></text>
            </g>
            <g transform="matrix(1,0,0,1,707.388,-194.928)">
                <rect x="13.715" y="18.806" width="11.813" height="11.813" style="fill:rgb(0,144,81);"/>
            </g>
            <g transform="matrix(1,0,0,1,692.266,-198.467)">
                <text x="46.852px" y="31.482px" style="font-family:'ArialMT', 'Arial', sans-serif;font-size:9px;">ArchR</text>
            </g>
            <g transform="matrix(1,0,0,1,-81.4501,-258.155)">
                <text x="319.592px" y="10.898px" style="font-family:'ArialMT', 'Arial', sans-serif;font-size:9px;">Bone Marrow (Chen, 2019)</text>
            </g>
            <g transform="matrix(1,0,0,1,-115.916,-257.306)">
                <text x="502.935px" y="10.049px" style="font-family:'ArialMT', 'Arial', sans-serif;font-size:9px;">Erythropoiesis (Chen, 2019)</text>
            </g>
            <g transform="matrix(1,0,0,1,-70.3884,-247.165)">
                <text x="756.947px" y="14.834px" style="font-family:'Arial-BoldMT', 'Arial', sans-serif;font-weight:700;font-size:9px;">A<tspan x="763.112px 768.118px " y="14.834px 14.834px ">ve</tspan>rage</text>
                <text x="756.947px" y="24.128px" style="font-family:'Arial-BoldMT', 'Arial', sans-serif;font-weight:700;font-size:9px;">Rank</text>
            </g>
            <g transform="matrix(1,0,0,1,-85.3411,-254.17)">
                <text x="784.213px" y="49.744px" style="font-family:'ArialMT', 'Arial', sans-serif;font-size:9px;">1</text>
            </g>
            <g transform="matrix(1,0,0,1,-85.4182,-263.368)">
                <text x="784.056px" y="78.281px" style="font-family:'ArialMT', 'Arial', sans-serif;font-size:9px;">2</text>
            </g>
            <g transform="matrix(1,0,0,1,-91.826,-280.764)">
                <text x="784.098px" y="113.62px" style="font-family:'ArialMT', 'Arial', sans-serif;font-size:9px;">3.25</text>
            </g>
            <g transform="matrix(1,0,0,1,-37.4613,-296.913)">
                <text x="732.236px" y="148.949px" style="font-family:'ArialMT', 'Arial', sans-serif;font-size:9px;">3.5</text>
            </g>
            <g transform="matrix(-1,0,0,1,370.602,-221.907)">
                <path d="M-3.5,0L0,0" style="fill:none;fill-rule:nonzero;stroke:black;stroke-width:0.8px;"/>
            </g>
            <g transform="matrix(-1,0,0,1,370.602,-247.125)">
                <path d="M-3.5,0L0,0" style="fill:none;fill-rule:nonzero;stroke:black;stroke-width:0.8px;"/>
            </g>
            <g transform="matrix(1,0,0,1,29.851,-265.856)">
                <text x="14.046px" y="21.288px" style="font-family:'ArialMT', 'Arial', sans-serif;font-size:9px;">1.00</text>
            </g>
            <g transform="matrix(1,0,0,1,29.1968,-258.102)">
                <text x="14.629px" y="39.375px" style="font-family:'ArialMT', 'Arial', sans-serif;font-size:9px;">0.75</text>
            </g>
            <g transform="matrix(1,0,0,1,29.2671,-183.421)">
                <text x="14.629px" y="39.375px" style="font-family:'ArialMT', 'Arial', sans-serif;font-size:9px;">0.00</text>
            </g>
            <g transform="matrix(1,0,0,1,29.1968,-208.547)">
                <text x="14.629px" y="39.375px" style="font-family:'ArialMT', 'Arial', sans-serif;font-size:9px;">0.25</text>
            </g>
            <g transform="matrix(1,0,0,1,29.2671,-233.924)">
                <text x="14.629px" y="39.375px" style="font-family:'ArialMT', 'Arial', sans-serif;font-size:9px;">0.50</text>
            </g>
        </g>
    </g>
</svg>
